<svg xmlns="http://www.w3.org/2000/svg" xmlns:xlink="http://www.w3.org/1999/xlink" width="498.099" height="498.278"><defs><linearGradient id="j"><stop offset="0" stop-color="#ff0"/><stop offset="1" stop-color="#ff0" stop-opacity="0"/></linearGradient><linearGradient id="b"><stop offset="0" stop-color="#ffc400"/><stop offset="1" stop-color="#ffac00" stop-opacity="0"/></linearGradient><linearGradient id="a"><stop offset="0" stop-color="#ff9400"/><stop offset="1" stop-color="#ff8900" stop-opacity="0"/></linearGradient><linearGradient id="c"><stop offset="0" stop-color="#ff9400"/><stop offset="1" stop-color="#ff8900" stop-opacity="0"/></linearGradient><linearGradient id="d"><stop offset="0" stop-color="#fff600"/><stop offset="1" stop-color="#ffac00" stop-opacity="0"/></linearGradient><linearGradient id="e"><stop offset="0" stop-color="#ff9400"/><stop offset="1" stop-color="#ff8900" stop-opacity="0"/></linearGradient><linearGradient id="f"><stop offset="0" stop-color="#ff9400"/><stop offset="1" stop-color="#ff8900" stop-opacity="0"/></linearGradient><linearGradient id="g"><stop offset="0" stop-color="#fff600"/><stop offset="1" stop-color="#ffac00" stop-opacity="0"/></linearGradient><linearGradient id="h"><stop offset="0" stop-color="#ff9400"/><stop offset="1" stop-color="#ff8900" stop-opacity="0"/></linearGradient><linearGradient id="i"><stop offset="0" stop-color="#ffc400"/><stop offset="1" stop-color="#ffac00" stop-opacity="0"/></linearGradient><radialGradient xlink:href="#j" id="k" gradientUnits="userSpaceOnUse" cx="355.357" cy="554.862" fx="355.357" fy="554.862" r="141.708"/><radialGradient xlink:href="#a" id="l" gradientUnits="userSpaceOnUse" gradientTransform="rotate(-7.5 1430.573 -2168.82)" cx="14.286" cy="365.219" fx="14.286" fy="365.219" r="249.352"/><radialGradient xlink:href="#e" id="m" gradientUnits="userSpaceOnUse" gradientTransform="rotate(-45 382.616 32.724)" cx="14.286" cy="365.219" fx="14.286" fy="365.219" r="249.352"/><radialGradient xlink:href="#c" id="n" gradientUnits="userSpaceOnUse" cx="355.357" cy="554.862" fx="355.357" fy="554.862" r="136.071"/><linearGradient xlink:href="#d" id="o" gradientUnits="userSpaceOnUse" x1="213.18" y1="554.862" x2="497.534" y2="554.862"/><radialGradient xlink:href="#a" id="p" gradientUnits="userSpaceOnUse" cx="355.357" cy="554.862" fx="355.357" fy="554.862" r="136.071"/><linearGradient xlink:href="#b" id="q" gradientUnits="userSpaceOnUse" x1="213.18" y1="554.862" x2="497.534" y2="554.862"/><radialGradient xlink:href="#c" id="r" cx="357.144" cy="600.26" fx="357.144" fy="600.26" r="51.997" gradientTransform="matrix(1 0 0 .34434 0 393.566)" gradientUnits="userSpaceOnUse"/></defs><path d="M491.43 554.862c0 75.15-60.923 136.072-136.073 136.072s-136.07-60.922-136.07-136.072 60.92-136.07 136.07-136.07c75.15 0 136.072 60.92 136.072 136.07z" transform="matrix(1.8189 0 0 1.8189 -397.31 -760.1)" fill="url(#k)"/><g fill="none" stroke="#ff0" stroke-width="10"><path d="M155.648 23.53l47.29 114.167M227.187 132.484c-26.1-23.792 18.144-40.15 12.36-50.838-5.038-9.312-31.368-23.386-29.19-36.463 2.807-16.847 16.073-19.66-.04-39.622M171.628 159.088c-34.498-7.554-4.362-43.843-14.714-50.207-9.02-5.544-38.86-4.567-43.51-16.98-5.994-15.995 4.088-25.063-19.847-34.295M288.61 137.123c-10.707-33.653 35.788-25.7 36.123-37.846.293-10.584-15.473-35.937-7.048-46.173 10.854-13.187 23.75-8.99 19.776-34.334M339.483 171.853c7.555-34.5 43.843-4.362 50.207-14.714 5.546-9.02 4.57-38.86 16.983-43.512 15.994-5.994 25.062 4.09 34.293-19.846M366.176 227.366c23.792-26.1 40.15 18.144 50.838 12.36 9.313-5.038 23.386-31.368 36.463-29.19 16.848 2.807 19.66 16.072 39.622-.04M361.537 288.788c33.654-10.706 25.7 35.79 37.846 36.124 10.584.292 35.937-15.473 46.173-7.048 13.187 10.854 8.99 23.75 34.334 19.776M326.808 339.662c34.498 7.555 4.36 43.843 14.713 50.207 9.022 5.545 38.86 4.568 43.512 16.982 5.994 15.994-4.088 25.062 19.847 34.293M271.294 366.355c26.1 23.792-18.144 40.15-12.36 50.838 5.038 9.312 31.368 23.386 29.19 36.463-2.807 16.847-16.072 19.66.04 39.622M209.872 361.716c10.707 33.653-35.788 25.7-36.124 37.846-.292 10.584 15.473 35.937 7.048 46.173-10.854 13.187-23.748 8.99-19.775 34.334M132.305 271.473c-23.792 26.1-40.15-18.144-50.837-12.36-9.313 5.038-23.386 31.368-36.463 29.19-16.848-2.807-19.66-16.072-39.622.04M158.998 326.986c-7.554 34.5-43.843 4.362-50.207 14.714-5.544 9.02-4.567 38.86-16.98 43.51-15.995 5.995-25.063-4.088-34.295 19.847M136.945 210.05c-33.654 10.708-25.7-35.787-37.846-36.123-10.586-.292-35.94 15.473-46.175 7.048-13.187-10.854-8.99-23.748-34.333-19.776M55.474 100.398l98.036 75.225M7.154 217.053l122.514 16.13M23.635 342.24L137.8 294.95M100.5 442.414l75.227-98.036M217.156 490.734l16.13-122.515M342.343 474.253l-47.29-114.165M442.517 397.386L344.48 322.16M490.837 280.73l-122.514-16.128M474.356 155.545L360.19 202.833M397.49 55.37l-75.226 98.036M280.834 7.05l-16.13 122.515"/></g><path d="M388.755 286.034l-16.13 122.514m132.785-74.194l-75.226 98.036m152.092 2.138l-114.165 47.29m130.647 77.896l-122.514-16.13m74.194 132.786L452.4 601.144m-2.137 152.092l-47.29-114.165m-77.897 130.647l16.13-122.514M208.42 721.397l75.227-98.036m-152.092-2.137l114.165-47.29m-130.646-77.897l122.514 16.13M163.394 379.38l98.036 75.227m-16.565 34.427c-33.654 10.707-25.7-35.788-37.846-36.124-10.586-.292-35.938 15.473-46.174 7.05-13.188-10.856-8.99-23.75-34.334-19.777M266.92 605.97c-7.556 34.498-43.845 4.362-50.21 14.713-5.544 9.02-4.567 38.86-16.98 43.512-15.995 5.993-25.063-4.09-34.294 19.846m74.79-133.583c-23.792 26.1-40.15-18.144-50.838-12.362-9.313 5.04-23.386 31.37-36.463 29.19-16.848-2.806-19.66-16.07-39.622.042m204.49 73.372c10.706 33.653-35.79 25.698-36.125 37.845-.292 10.585 15.474 35.937 7.05 46.173-10.856 13.187-23.75 8.99-19.777 34.334M379.216 645.34c26.1 23.79-18.144 40.15-12.36 50.836 5.038 9.313 31.367 23.386 29.19 36.463-2.807 16.847-16.073 19.66.04 39.62m38.643-153.615c34.498 7.555 4.362 43.843 14.713 50.207 9.022 5.546 38.86 4.57 43.513 16.983 5.993 15.994-4.09 25.062 19.846 34.293m-43.343-152.356c33.654-10.707 25.7 35.788 37.846 36.123 10.585.293 35.937-15.473 46.173-7.048 13.188 10.855 8.99 23.75 34.334 19.776M474.097 506.35c23.79-26.1 40.15 18.143 50.837 12.36 9.313-5.04 23.386-31.37 36.463-29.19 16.848 2.806 19.66 16.072 39.622-.04m-153.617-38.644c7.555-34.498 43.843-4.362 50.207-14.714 5.546-9.02 4.57-38.86 16.983-43.51 15.994-5.994 25.062 4.088 34.293-19.847M396.53 416.107c-10.707-33.654 35.788-25.7 36.123-37.846.293-10.584-15.473-35.937-7.048-46.172 10.855-13.188 23.75-8.99 19.776-34.334M279.55 438.072c-34.498-7.555-4.36-43.843-14.713-50.208-9.02-5.545-38.86-4.568-43.51-16.982-5.995-15.994 4.087-25.062-19.848-34.293m133.63 74.877c-26.1-23.79 18.144-40.15 12.36-50.837-5.038-9.313-31.367-23.386-29.19-36.463 2.807-16.848 16.073-19.66-.04-39.622m-54.67 17.97l47.29 114.165" fill="none" stroke="url(#l)" stroke-width="5" transform="translate(-108.095 -278.97)"/><g fill="none" stroke="#ff0" stroke-width="10"><path d="M126.964 37.68l61.786 107.016M212.112 136.363c-28.98-20.182 12.75-42.175 5.62-52.016-6.21-8.575-34.153-19.092-33.7-32.34.583-17.07 13.37-21.59-5.212-39.28M160.502 169.99c-35.19-2.985-10.048-42.897-21.142-47.856-9.667-4.32-39.123.543-45.355-11.158-8.03-15.074.782-25.38-24.153-31.41M273.615 132.945c-15.008-31.968 32.128-30.15 30.875-42.237-1.092-10.532-20.032-33.61-13.015-44.858 9.04-14.49 22.372-12.013 15.125-36.62M328.587 160.737c2.987-35.19 42.898-10.047 47.857-21.14 4.32-9.668-.543-39.124 11.158-45.357 15.074-8.03 25.38.783 31.41-24.152M362.297 212.29c20.182-28.98 42.175 12.75 52.016 5.62 8.576-6.21 19.092-34.152 32.34-33.7 17.07.584 21.59 13.37 39.28-5.21M365.715 273.794c31.968-15.008 30.15 32.128 42.237 30.875 10.532-1.093 33.61-20.033 44.858-13.016 14.492 9.04 12.013 22.372 36.622 15.125M337.923 328.765c35.19 2.987 10.047 42.9 21.14 47.857 9.668 4.32 39.124-.542 45.357 11.158 8.03 15.075-.783 25.382 24.152 31.41M286.37 362.476c28.98 20.182-12.75 42.175-5.62 52.016 6.21 8.576 34.152 19.092 33.7 32.34-.584 17.07-13.37 21.59 5.21 39.28M224.866 365.894c15.008 31.968-32.127 30.15-30.875 42.237 1.093 10.533 20.033 33.61 13.016 44.86-9.04 14.49-22.372 12.012-15.125 36.62M136.184 286.548c-20.18 28.98-42.175-12.748-52.016-5.62-8.575 6.212-19.092 34.153-32.34 33.7-17.07-.583-21.59-13.368-39.28 5.212M169.895 338.102c-2.987 35.19-42.9 10.047-47.857 21.14-4.32 9.668.543 39.124-11.158 45.357-15.075 8.028-25.38-.784-31.41 24.15M132.767 225.045c-31.97 15.008-30.15-32.128-42.238-30.875-10.533 1.092-33.61 20.032-44.86 13.015-14.49-9.04-12.012-22.372-36.62-15.125M37.68 126.964l107.016 61.786M5 248.93h123.57M37.68 370.893l107.016-61.786M126.964 460.177L188.75 353.16M248.93 492.857v-123.57M370.893 460.177L309.107 353.16M460.177 370.893L353.16 309.107M492.857 248.93h-123.57M460.177 126.964L353.16 188.75M370.893 37.68l-61.786 107.016M248.93 5v123.57"/></g><path d="M234.797 316.765l61.786 107.016m60.178-139.695v123.57m121.966-90.89L416.94 423.78m151.07-17.73l-107.016 61.785m139.696 60.178H477.12m90.89 121.965l-107.016-61.786m17.732 151.07L416.94 632.246m-60.18 139.696v-123.57m-121.963 90.89l61.786-107.016m-151.07 17.732l107.016-61.786m-139.697-60.18h123.57m7.818 37.4c-20.18 28.98-42.174-12.75-52.015-5.62-8.576 6.21-19.092 34.152-32.34 33.7-17.07-.584-21.59-13.37-39.28 5.21m212.318 46.055c15.008 31.968-32.128 30.15-30.875 42.237 1.092 10.532 20.032 33.61 13.015 44.858-9.04 14.49-22.372 12.013-15.125 36.62M277.93 616.966c-2.986 35.19-42.897 10.047-47.856 21.14-4.32 9.668.543 39.124-11.158 45.357-15.074 8.03-25.38-.783-31.41 24.152m206.9-66.275c28.98 20.18-12.75 42.174-5.62 52.015 6.21 8.575 34.153 19.092 33.7 32.34-.584 17.07-13.37 21.59 5.212 39.28m18.262-157.347c35.19 2.987 10.047 42.9 21.14 47.857 9.668 4.32 39.124-.542 45.356 11.158 8.03 15.075-.782 25.382 24.153 31.41m-62.86-145.396c31.97-15.008 30.152 32.128 42.24 30.875 10.53-1.092 33.61-20.032 44.857-13.015 14.49 9.04 12.012 22.372 36.62 15.125m-127.133-94.488c20.18-28.98 42.175 12.748 52.016 5.62 8.575-6.212 19.09-34.153 32.34-33.7 17.07.583 21.59 13.368 39.278-5.212M436.623 439.6c2.987-35.19 42.9-10.047 47.857-21.14 4.32-9.668-.543-39.124 11.158-45.357 15.075-8.03 25.38.783 31.41-24.152M381.652 411.81c-15.008-31.968 32.127-30.15 30.874-42.237-1.09-10.53-20.03-33.61-13.014-44.857 9.04-14.49 22.372-12.013 15.125-36.62M320.15 415.225c-28.982-20.182 12.747-42.175 5.62-52.016-6.213-8.576-34.154-19.092-33.7-32.34.582-17.07 13.367-21.59-5.213-39.28m-46.144 212.275c-31.97 15.008-30.15-32.127-42.237-30.874-10.533 1.092-33.61 20.032-44.86 13.015-14.49-9.04-12.01-22.372-36.62-15.125m151.6-21.943c-35.19-2.987-10.048-42.9-21.142-47.857-9.667-4.32-39.123.542-45.356-11.158-8.03-15.075.783-25.382-24.152-31.41m-32.433 47.537l107.016 61.785" fill="none" stroke="url(#m)" stroke-width="5" transform="translate(-108.095 -278.97)"/><path d="M369.78 249.722c0 66.668-54.045 120.714-120.714 120.714-66.668 0-120.714-54.046-120.714-120.714 0-66.67 54.046-120.715 120.714-120.715 66.67 0 120.715 54.046 120.715 120.715z" fill="#ff0" stroke="#fff000" stroke-width="9.99984208"/><path transform="matrix(-.8189 0 0 .8189 540.067 -204.654)" d="M491.43 554.862c0 75.15-60.923 136.072-136.073 136.072s-136.07-60.922-136.07-136.072 60.92-136.07 136.07-136.07c75.15 0 136.072 60.92 136.072 136.07z" opacity=".75" fill="url(#n)" stroke="url(#o)" stroke-width="12.212"/><path transform="matrix(.8189 0 0 .8189 -41.935 -204.654)" d="M491.43 554.862c0 75.15-60.923 136.072-136.073 136.072s-136.07-60.922-136.07-136.072 60.92-136.07 136.07-136.07c75.15 0 136.072 60.92 136.072 136.07z" opacity=".75" fill="url(#p)" stroke="url(#q)" stroke-width="12.212"/><g stroke="#000"><path d="M326.365 199.465c-20.956.14-41.15 6.69-61.72 9.31-8.586 1.093-17.434 1.36-26.034.345-11.432-1.352-22.502-4.943-33.928-6.552-10.21-1.438-20.55-2.94-30.826-3-17.957-.105-35.325 5.517-52.93 8.552 0 5.15-1.045 11.76 1.587 15.378 2.715 3.733 7.295 7.147 8.483 12.207 2.817 11.997 6.817 23.758 11.93 35.032 2.485 5.48 7.176 9.3 12.413 11.93 12.612 6.337 27.54 7.27 41.377 5.276 19.704-2.837 30.394-17.622 38.55-34.515 3.052-6.867 3.393-14.792 7.413-21.068 2.388-3.728 7.933-2.16 11.896-2.172 5.902-.02 7.32 6.577 8.55 10.965 4.354 15.526 11.61 32 26.034 40.135 21.54 12.15 55.47 9.877 69.445-12.033 5.47-8.575 6.98-18.98 9.724-28.69 1.67-5.91 3.16-12.955 9.102-16.205 2.397-1.31.715-6.544 1.07-9.585.384-3.315 1.128-6.246-3.587-6.897-8.225-1.135-16.202-4.59-24.62-5.758-7.976-1.108-15.792-2.71-23.93-2.655zm-138.544 5.517c5.95-.038 11.873.397 17.655 1.62 34.45 7.287 35.147 21.48 20.964 50.826-11.557 23.91-35.496 29.902-59.618 24.17-11.12-2.64-18.724-10.403-22.31-21.033-3.784-11.218-6.647-23.138-6-34.93.87-15.79 18.728-18.008 31.516-19.446 5.868-.66 11.844-1.17 17.793-1.208zm125.787 0c5.95.038 11.925.547 17.793 1.207 12.788 1.437 30.647 3.656 31.515 19.446.648 11.79-2.215 23.71-6 34.93-3.585 10.63-11.19 18.39-22.31 21.033-24.12 5.73-48.06-.26-59.616-24.172-14.184-29.345-13.487-43.54 20.963-50.825 5.782-1.224 11.706-1.66 17.654-1.62z" stroke-width="1.10339"/><path d="M170.024 206.2c11.736-1.32 23.88-2.034 35.444.412 34.45 7.287 35.145 21.483 20.963 50.827-11.555 23.91-35.482 29.903-59.604 24.172-11.12-2.642-18.728-10.432-22.314-21.06-3.785-11.22-6.663-23.133-6.015-34.924.868-15.79 18.74-17.99 31.527-19.427zM331.393 206.2c-11.736-1.32-23.88-2.034-35.445.412-34.45 7.287-35.145 21.483-20.963 50.827 11.557 23.91 35.484 29.903 59.606 24.172 11.12-2.642 18.728-10.432 22.314-21.06 3.785-11.22 6.664-23.133 6.016-34.924-.868-15.79-18.74-17.99-31.527-19.427z" opacity=".85" stroke-width="1.10339"/></g><path d="M406.64 584.855c0 17.016-22.16 30.81-49.496 30.81-27.337 0-49.498-13.794-49.498-30.81h98.995z" fill="#ffa000" stroke="url(#r)" stroke-width="10" transform="translate(-108.095 -278.97)"/></svg>